<?xml version="1.0" standalone="no"?>
<!DOCTYPE svg PUBLIC "-//W3C//DTD SVG 20010904//EN"
 "http://www.w3.org/TR/2001/REC-SVG-20010904/DTD/svg10.dtd">
<svg version="1.0" xmlns="http://www.w3.org/2000/svg"
 width="320.000000pt" height="320.000000pt" viewBox="0 0 320.000000 320.000000"
 preserveAspectRatio="xMidYMid meet">
<metadata>
Created by potrace 1.14, written by Peter Selinger 2001-2017
</metadata>
<g transform="translate(0.000000,320.000000) scale(0.100000,-0.100000)"
fill="#000000" stroke="none">
<path d="M1345 3110 c-159 -37 -272 -74 -370 -120 -429 -199 -746 -597 -846
-1062 -14 -63 -22 -149 -26 -268 -6 -196 12 -338 62 -500 37 -117 142 -327
220 -435 162 -227 414 -424 670 -524 85 -34 406 -121 443 -121 9 0 12 119 12
520 l0 520 -179 0 c-177 0 -179 0 -185 -22 -3 -13 -6 -137 -6 -275 0 -139 -2
-253 -4 -253 -10 0 -137 76 -193 116 -196 140 -350 354 -429 594 -25 80 -27
99 -32 301 -4 198 -2 223 18 304 73 293 269 552 541 715 45 28 86 50 91 50 4
0 8 -121 8 -270 l0 -270 190 0 190 0 0 258 c0 142 -3 374 -7 515 -6 252 -7
257 -27 256 -12 0 -75 -13 -141 -29z"/>
<path d="M1732 1593 l3 -1518 30 3 c49 5 216 40 273 57 l52 16 0 283 c0 155 3
438 7 629 l6 345 86 8 85 7 173 -176 c95 -97 173 -182 173 -189 0 -21 -105
-170 -171 -242 l-61 -66 23 -30 c65 -80 215 -238 225 -237 20 3 174 179 229
262 58 87 195 359 195 387 0 17 -99 126 -324 356 l-111 112 111 113 c314 320
327 335 320 370 -11 55 -143 308 -210 401 -80 112 -194 238 -211 234 -11 -3
-221 -228 -239 -256 -5 -8 17 -39 57 -82 68 -73 167 -215 167 -238 0 -8 -78
-93 -173 -189 l-173 -176 -86 7 -85 8 -6 345 c-4 191 -7 471 -7 624 l0 277
-32 11 c-58 19 -201 49 -266 55 l-62 7 2 -1518z"/>
</g>
</svg>
