<?xml version="1.0" standalone="no"?>
<!DOCTYPE svg PUBLIC "-//W3C//DTD SVG 20010904//EN"
 "http://www.w3.org/TR/2001/REC-SVG-20010904/DTD/svg10.dtd">
<svg version="1.0" xmlns="http://www.w3.org/2000/svg"
 width="700.000000pt" height="700.000000pt" viewBox="0 0 700.000000 700.000000"
 preserveAspectRatio="xMidYMid meet">
<metadata>
Created by potrace 1.14, written by Peter Selinger 2001-2017
</metadata>
<g transform="translate(0.000000,700.000000) scale(0.100000,-0.100000)"
fill="#000000" stroke="none">
<path d="M3329 6786 c-2 -2 -65 -6 -139 -10 -74 -3 -146 -8 -160 -10 -14 -2
-52 -7 -85 -11 -152 -17 -393 -74 -580 -137 -897 -301 -1640 -1025 -1979
-1930 -55 -149 -119 -362 -141 -477 -11 -55 -45 -256 -50 -290 -28 -215 -28
-623 1 -846 57 -458 235 -958 476 -1342 514 -819 1335 -1356 2271 -1488 92
-12 270 -26 387 -28 l35 -1 0 612 0 612 -60 1 c-89 2 -132 6 -260 25 -229 35
-516 149 -732 291 -95 62 -93 61 -200 152 -367 312 -624 780 -697 1271 -16
109 -21 180 -21 315 0 364 66 643 226 965 48 96 167 292 189 310 3 3 25 30 48
60 64 82 206 223 297 297 341 274 758 429 1165 433 l45 0 0 603 c0 331 -4 608
-8 615 -8 12 -20 16 -28 8z"/>
<path d="M3680 6782 l-25 -3 0 -1562 0 -1562 70 1 c74 1 263 13 292 18 10 2
45 7 78 11 57 7 72 9 125 20 14 2 41 7 60 10 64 11 264 63 363 95 568 182
1099 542 1472 995 28 34 59 74 70 89 11 16 25 33 30 40 24 26 126 179 183 272
72 120 166 312 216 444 21 52 42 109 49 125 6 17 12 35 14 40 1 6 13 48 28 95
14 47 35 126 46 175 26 113 26 114 33 161 3 22 8 50 11 64 16 83 29 241 29
364 l1 110 -1560 0 c-858 1 -1571 0 -1585 -2z"/>
<path d="M3662 3336 c-12 -18 -9 -3115 3 -3119 5 -1 719 -2 1585 -2 l1575 1
-1 110 c0 101 -8 216 -18 289 -6 37 -25 160 -32 200 -10 56 -74 294 -103 382
-317 958 -1109 1719 -2095 2013 -72 22 -142 41 -156 44 -14 3 -68 14 -120 25
-52 11 -131 25 -175 31 -44 6 -91 13 -105 15 -32 5 -196 16 -283 19 -41 2 -71
-1 -75 -8z"/>
</g>
</svg>
