<?xml version="1.0" standalone="no"?>
<!DOCTYPE svg PUBLIC "-//W3C//DTD SVG 20010904//EN"
 "http://www.w3.org/TR/2001/REC-SVG-20010904/DTD/svg10.dtd">
<svg version="1.0" xmlns="http://www.w3.org/2000/svg"
 width="256.000000pt" height="256.000000pt" viewBox="0 0 256.000000 256.000000"
 preserveAspectRatio="xMidYMid meet">
<metadata>
Created by potrace 1.14, written by Peter Selinger 2001-2017
</metadata>
<g transform="translate(0.000000,256.000000) scale(0.100000,-0.100000)"
fill="#000000" stroke="none">
<path d="M1035 2476 c-152 -40 -191 -53 -284 -99 -245 -121 -443 -327 -565
-588 -53 -114 -72 -178 -91 -306 -28 -184 -15 -376 36 -548 27 -89 126 -286
187 -367 136 -185 340 -340 548 -414 99 -36 286 -84 324 -84 20 0 20 6 20 410
l0 410 -143 0 -144 0 -6 -137 c-4 -75 -7 -171 -7 -215 0 -43 -2 -78 -5 -78
-12 0 -72 34 -130 73 -166 112 -291 279 -362 482 -26 76 -27 89 -28 270 0 182
1 193 29 277 69 212 223 403 421 522 33 20 63 36 68 36 4 0 7 -97 7 -215 l0
-215 150 0 150 0 0 410 0 410 -22 0 c-13 -1 -81 -16 -153 -34z"/>
<path d="M1382 1276 c2 -662 6 -1207 10 -1211 7 -7 140 17 226 41 l52 15 0
257 c0 141 3 368 7 503 l6 247 66 5 66 5 143 -143 144 -143 -15 -28 c-17 -32
-88 -128 -141 -189 l-34 -40 96 -107 97 -107 71 73 c39 41 88 100 109 132 45
67 165 302 165 321 0 8 -79 95 -176 193 l-177 180 177 180 c97 99 176 186 176
193 0 22 -106 232 -156 308 -27 41 -80 107 -119 147 l-70 73 -97 -108 -96
-108 34 -40 c53 -61 124 -157 141 -188 l15 -29 -141 -141 -140 -142 -71 3 -70
4 -1 121 c-1 67 -5 293 -8 502 l-6 380 -90 22 c-49 12 -114 22 -143 22 l-54 1
4 -1204z"/>
</g>
</svg>
