<!DOCTYPE svg PUBLIC "-//W3C//DTD SVG 20010904//EN" "http://www.w3.org/TR/2001/REC-SVG-20010904/DTD/svg10.dtd">
<svg version="1.0" xmlns="http://www.w3.org/2000/svg" width="1em" height="1em" viewBox="0 0 3000 3000" preserveAspectRatio="xMidYMid meet" stroke="currentColor" fill="currentColor" stroke-width="0" role="img">
  <path d="M0 1500 l0 -1500 1500 0 1500 0 0 1500 0 1500 -1500 0 -1500 0 0 -1500z m1418 934 l-3 -479 -170 0 -170 0 -3 258 -2 259 -68 -38 c-212 -117 -365 -280 -467 -497 -72 -154 -90 -242 -90 -447 0 -179 6 -224 47 -345 85 -250 294 -492 526 -609 l52 -26 0 255 0 255 175 0 175 0 0 -478 c0 -263 -3 -481 -6 -484 -3 -3 -20 -3 -37 2 -18 4 -57 13 -87 19 -302 65 -484 149 -698 323 -166 135 -296 318 -403 563 -83 192 -119 497 -84 716 32 201 53 268 140 444 116 233 268 405 492 556 152 103 322 169 558 219 33 7 71 16 85 20 14 4 28 4 33 1 4 -4 6 -223 5 -487z m278 486 c108 -20 169 -33 216 -48 l48 -14 2 -592 3 -591 84 -3 85 -3 163 163 c90 90 163 168 163 174 0 22 -98 161 -160 227 l-62 67 93 102 c52 57 104 114 117 128 l22 25 81 -85 c45 -47 103 -119 131 -160 58 -86 188 -346 188 -375 0 -12 -80 -100 -207 -227 l-208 -208 208 -208 c114 -114 207 -215 207 -224 0 -22 -43 -122 -101 -232 -62 -118 -154 -247 -234 -326 l-65 -65 -43 46 c-23 25 -75 82 -116 128 l-74 82 61 62 c59 60 162 208 162 231 0 7 -73 85 -162 174 l-163 162 -85 -2 -85 -3 -3 -587 -2 -587 -33 -9 c-31 -9 -65 -18 -169 -41 -26 -6 -67 -11 -92 -11 l-46 0 0 1420 c0 781 4 1420 8 1420 5 0 35 -5 68 -10z"/>
</svg>